<svg width="77" height="77" viewBox="0 0 77 77" fill="none" xmlns="http://www.w3.org/2000/svg">
<circle cx="38.5" cy="38.5" r="38.5" fill="#F15BB5" fill-opacity="0.8"/>
<circle cx="38.5" cy="38.5" r="21.5" fill="#5215FF"/>
<path d="M48.816 48H41.64V47.088C41.96 46.928 42.272 46.792 42.576 46.68C42.88 46.568 43.208 46.472 43.56 46.392V36.36L43.68 33.552H43.488L42.696 36.12L38.064 48H36.96L32.352 36.216L31.488 33.408H31.272L31.296 36.456V46.296C31.6 46.36 31.936 46.464 32.304 46.608C32.672 46.752 33.016 46.912 33.336 47.088V48H27.48V47.088C27.736 46.96 28.048 46.808 28.416 46.632C28.8 46.456 29.16 46.336 29.496 46.272V32.808C29.176 32.744 28.832 32.656 28.464 32.544C28.112 32.432 27.8 32.288 27.528 32.112V31.2H34.032L37.704 40.968L38.4 43.272H38.424L39.144 40.92L42.888 31.2H48.84V32.112C48.568 32.272 48.272 32.416 47.952 32.544C47.648 32.656 47.336 32.744 47.016 32.808V46.416C47.352 46.48 47.672 46.576 47.976 46.704C48.296 46.832 48.576 46.96 48.816 47.088V48Z" fill="white"/>
</svg>
